<svg id="Group_2468_copy" data-name="Group 2468 copy" xmlns="http://www.w3.org/2000/svg" width="154.25" height="42.688" viewBox="0 0 154.25 42.688">
  <defs>
    <style>
      .cls-1 {
        fill: #fff;
      }

      .cls-1, .cls-2 {
        fill-rule: evenodd;
      }

      .cls-2 {
        fill: #ff4880;
      }
    </style>
  </defs>
  <path id="fama" class="cls-1" d="M146.219,68.31a5,5,0,0,0-4.32,1.98,9.15,9.15,0,0,0-1.44,5.472q0,1.224.072,4.392h-1.764a1.591,1.591,0,0,0-1.17.4,1.51,1.51,0,0,0-.306,1.008,1.466,1.466,0,0,0,.36,1.08,1.635,1.635,0,0,0,1.188.36q1.26,0,1.728-.036,0.144,6.661.18,10.512a1.378,1.378,0,0,0,.45,1.062,1.819,1.819,0,0,0,1.278.414,2.024,2.024,0,0,0,1.278-.378,1.265,1.265,0,0,0,.45-1.134L144.1,82.89q1.476,0,2.484-.036a1.2,1.2,0,0,0,1.332-1.332,1.583,1.583,0,0,0-.324-1.062,1.21,1.21,0,0,0-.972-0.378h-2.556v-4.14a10.256,10.256,0,0,1,.45-3.582,1.66,1.66,0,0,1,1.674-1.1,1.386,1.386,0,0,1,1.44.774,6.243,6.243,0,0,1,.36,2.178,1.53,1.53,0,0,0,1.8,1.548,1.706,1.706,0,0,0,1.314-.45,1.933,1.933,0,0,0,.414-1.35,5.833,5.833,0,0,0-1.386-4.23,5.2,5.2,0,0,0-3.906-1.422h0Zm21.924,23.76a1.125,1.125,0,0,1-1.062-.828,11.322,11.322,0,0,1-.2-2.592V86.274q0-2.087.108-3.384,0.072-1.368.432-4.068A1.207,1.207,0,0,0,167.1,77.8a1.79,1.79,0,0,0-1.332-.414,1.355,1.355,0,0,0-1.548,1.3l-0.108.9a4.521,4.521,0,0,0-1.926-1.764,6.4,6.4,0,0,0-2.934-.648,8.008,8.008,0,0,0-7.488,4.644,10.7,10.7,0,0,0-1.008,4.644,9.959,9.959,0,0,0,1.98,6.318q1.98,2.538,6.156,2.538,4.1,0,5.616-2.448a3.849,3.849,0,0,0,1.35,1.62,4.483,4.483,0,0,0,2.214.432,1.062,1.062,0,0,0,.9-0.432,1.749,1.749,0,0,0,.324-1.08,1.294,1.294,0,0,0-.306-0.972,1.489,1.489,0,0,0-.846-0.36h0Zm-4.788-3.42a3.514,3.514,0,0,1-1.224,2.808,4.733,4.733,0,0,1-3.1.972,3.9,3.9,0,0,1-3.546-1.782,7.643,7.643,0,0,1-1.134-4.194,8.585,8.585,0,0,1,.558-3.06,5.783,5.783,0,0,1,1.692-2.43,4.137,4.137,0,0,1,2.754-.954,4.317,4.317,0,0,1,1.854.432,3.824,3.824,0,0,1,1.548,1.368,4.239,4.239,0,0,1,.63,2.412q0,2.808-.036,4.428h0ZM189.2,76.662a5.153,5.153,0,0,0-5.148,3.672q-1.188-3.564-4.644-3.564A4.306,4.306,0,0,0,176.5,77.8a6.335,6.335,0,0,0-1.8,2.79v-0.5a3.362,3.362,0,0,0-.684-2.088,1.816,1.816,0,0,0-1.3-.972,1.673,1.673,0,0,0-1.116.432,1.4,1.4,0,0,0-.5,1.116,0.646,0.646,0,0,0,.2.5c0.131,0.12.21,0.192,0.234,0.216a1.81,1.81,0,0,1,.486.7,4.233,4.233,0,0,1,.2,1.278q0.034,4.5.036,12.312a1.09,1.09,0,0,0,.486.972,2.267,2.267,0,0,0,1.278.324,1.917,1.917,0,0,0,1.134-.342,1.068,1.068,0,0,0,.486-0.918V88.9a25.99,25.99,0,0,1,.288-4.464q1.044-4.932,3.276-4.932a2.6,2.6,0,0,1,2.358,1.746,9.834,9.834,0,0,1,.846,4.3v1.62L182.363,93.4q0,1.477,1.836,1.476,1.692,0,1.692-1.44V85.554a11.408,11.408,0,0,1,.81-4.428,2.438,2.438,0,0,1,2.214-1.764,2.3,2.3,0,0,1,2.286,1.35,11.48,11.48,0,0,1,.63,4.482v8.244a1.381,1.381,0,0,0,.468,1.116,1.883,1.883,0,0,0,1.26.4,1.8,1.8,0,0,0,1.224-.378,1.293,1.293,0,0,0,.432-1.026l0.072-8.352A12.01,12.01,0,0,0,193.9,78.93a5.064,5.064,0,0,0-4.7-2.268h0ZM214.8,92.07a1.125,1.125,0,0,1-1.062-.828,11.322,11.322,0,0,1-.2-2.592V86.274q0-2.087.108-3.384,0.072-1.368.432-4.068a1.207,1.207,0,0,0-.324-1.026,1.79,1.79,0,0,0-1.332-.414,1.355,1.355,0,0,0-1.548,1.3l-0.108.9a4.521,4.521,0,0,0-1.926-1.764,6.4,6.4,0,0,0-2.934-.648,8.008,8.008,0,0,0-7.488,4.644,10.7,10.7,0,0,0-1.008,4.644,9.959,9.959,0,0,0,1.98,6.318q1.98,2.538,6.156,2.538,4.1,0,5.616-2.448a3.849,3.849,0,0,0,1.35,1.62,4.483,4.483,0,0,0,2.214.432,1.062,1.062,0,0,0,.9-0.432,1.749,1.749,0,0,0,.324-1.08,1.294,1.294,0,0,0-.306-0.972,1.489,1.489,0,0,0-.846-0.36h0Zm-4.788-3.42a3.514,3.514,0,0,1-1.224,2.808,4.733,4.733,0,0,1-3.1.972,3.9,3.9,0,0,1-3.546-1.782,7.643,7.643,0,0,1-1.134-4.194,8.585,8.585,0,0,1,.558-3.06,5.783,5.783,0,0,1,1.692-2.43,4.137,4.137,0,0,1,2.754-.954,4.317,4.317,0,0,1,1.854.432,3.824,3.824,0,0,1,1.548,1.368,4.239,4.239,0,0,1,.63,2.412q0,2.808-.036,4.428h0Z" transform="translate(-97.344 -59.656)"/>
  <path id="do" class="cls-2" d="M238.483,66.38a14.013,14.013,0,0,1-2.88,1.062,15.633,15.633,0,0,1-3.492.414l-0.216.756a2.825,2.825,0,0,1,2.2.576,2.1,2.1,0,0,1,.108,1.8l-5.184,19.476a15.872,15.872,0,0,0-.378,1.656,5.951,5.951,0,0,0-.09,1.332,1.975,1.975,0,0,0,2.268,2.052,3.992,3.992,0,0,0,1.512-.324,4.173,4.173,0,0,0,1.512-1.134,5.9,5.9,0,0,0,1.152-2.25l0.828-2.628h-0.684L234.7,90.5a10.73,10.73,0,0,1-1.3,2.862,1.7,1.7,0,0,1-1.332.81,0.723,0.723,0,0,1-.846-0.7,4.168,4.168,0,0,1,.2-1.53Zm-16.308,27.2a5.387,5.387,0,0,1-.4-2.358,17.2,17.2,0,0,1,.432-3.69,22.435,22.435,0,0,1,1.224-3.852,19.855,19.855,0,0,1,1.836-3.438,9.887,9.887,0,0,1,2.322-2.484,4.425,4.425,0,0,1,2.646-.936,1.819,1.819,0,0,1,1.3.558,2.988,2.988,0,0,1,.72,1.854l0.288-.72a2.587,2.587,0,0,0-.792-1.89,2.314,2.314,0,0,0-1.548-.63,7.642,7.642,0,0,0-3.744.972,12.536,12.536,0,0,0-3.222,2.574,17.66,17.66,0,0,0-2.5,3.546,19.292,19.292,0,0,0-1.6,3.942,13.9,13.9,0,0,0-.558,3.726,6.543,6.543,0,0,0,.468,2.664,3.412,3.412,0,0,0,1.314,1.566,3.663,3.663,0,0,0,1.962.522,5.125,5.125,0,0,0,2.97-.99,10.809,10.809,0,0,0,2.808-3.222,34.926,34.926,0,0,0,2.79-5.94l0.54-3.888a28.839,28.839,0,0,1-1.566,4.806,27.749,27.749,0,0,1-2.16,4.14,15.244,15.244,0,0,1-2.3,2.88,3.2,3.2,0,0,1-2.034,1.062A1.269,1.269,0,0,1,222.175,93.578ZM247.987,77.45a4.362,4.362,0,0,1,.5,2.394,23.516,23.516,0,0,1-.36,4.014,27.649,27.649,0,0,1-1.008,4.014,19.3,19.3,0,0,1-1.548,3.51,9.522,9.522,0,0,1-1.962,2.484,3.356,3.356,0,0,1-2.214.918,1.74,1.74,0,0,1-1.53-.756,4.251,4.251,0,0,1-.522-2.376,23.537,23.537,0,0,1,.36-4,25.89,25.89,0,0,1,1.026-4.032,20.952,20.952,0,0,1,1.548-3.51,9.225,9.225,0,0,1,1.944-2.484,3.352,3.352,0,0,1,2.214-.918A1.747,1.747,0,0,1,247.987,77.45ZM237.6,94.1a4.739,4.739,0,0,0,3.582,1.4,7.445,7.445,0,0,0,3.672-.918,10.019,10.019,0,0,0,2.9-2.43,15.944,15.944,0,0,0,2.106-3.348,18.426,18.426,0,0,0,1.3-3.708,15.443,15.443,0,0,0,.432-3.456,5.909,5.909,0,0,0-1.35-4.266,4.774,4.774,0,0,0-3.582-1.386,7.44,7.44,0,0,0-3.672.918,10.006,10.006,0,0,0-2.9,2.43,15.944,15.944,0,0,0-2.106,3.348,18.439,18.439,0,0,0-1.3,3.708,15.451,15.451,0,0,0-.432,3.456A5.919,5.919,0,0,0,237.6,94.1Z" transform="translate(-97.344 -59.656)"/>
  <path class="cls-2" d="M127.787,90.227l0.184-.3A16.5,16.5,0,0,0,115.8,65.01l-0.513-.061,0.068-.513c0.109-.8.277-1.6,0.44-2.376,0.06-.289.121-0.579,0.179-0.87a1.224,1.224,0,0,0-.82-1.5,1.1,1.1,0,0,0-.289-0.038,1.175,1.175,0,0,0-1.165.831c-0.062.313-.127,0.625-0.191,0.937-0.085.408-.17,0.815-0.249,1.223l-0.17.876-0.668-.593a8.577,8.577,0,0,0-4.133-2.207,1.611,1.611,0,0,0-.309-0.031,1.175,1.175,0,0,0-1.189.852,1.292,1.292,0,0,0,.162.983,0.982,0.982,0,0,0,.632.47,6.733,6.733,0,0,1,2.9,1.386l0.842,0.665-1.049.231A16.5,16.5,0,0,0,103.064,93.9l0.317,0.272-0.2.364a5.244,5.244,0,1,0,9.684,3.746l0.094-.405,0.513,0.014c0.123,0,.246.007,0.37,0.007,0.433,0,.881-0.018,1.331-0.054l0.351-.029,0.15,0.32a7.306,7.306,0,0,0,13.922-3.1,7.217,7.217,0,0,0-1.585-4.534ZM107.752,99.12a2.022,2.022,0,1,1,2.022-2.022A2.024,2.024,0,0,1,107.752,99.12Zm14.533,0a4.082,4.082,0,1,1,4.082-4.082A4.088,4.088,0,0,1,122.285,99.12Zm3.11-11.175-0.213.373-0.4-.147a7.306,7.306,0,0,0-9.751,6.036l-0.049.428-0.431.023c-0.23.012-.464,0.018-0.7,0.018-0.405,0-.818-0.018-1.225-0.055l-0.256-.023-0.133-.219a5.24,5.24,0,0,0-5.964-2.31l-0.246.072-0.2-.155A13.28,13.28,0,1,1,125.4,87.945Zm-7.089-6.634a2.7,2.7,0,1,0-2.7-2.7A2.707,2.707,0,0,0,118.306,81.311Zm-5.814-2.7a2.7,2.7,0,1,0-2.7,2.7A2.707,2.707,0,0,0,112.492,78.608Zm7.486,7.361a1.018,1.018,0,0,0-1.472-1.406,6.293,6.293,0,0,1-8.772.322,1.018,1.018,0,1,0-1.366,1.509A8.329,8.329,0,0,0,119.978,85.97Z" transform="translate(-97.344 -59.656)"/>
</svg>
